# xmcd
#
# Track frame offsets: 
#        150
#        13728
#        25943
#        46340
#        66508
#        83130
#        98438
#        109723
#        125588
#        136878
#        158178
#        174958
#        192668
#        207350
#        226395
#
# Disc length: 3200 seconds
#
# Revision: 2
# Processed by: cddbd v1.5.2PL0 Copyright (c) Steve Scherf et al.
# Submitted via: ExactAudioCopy v0.99pb3
#
DISCID=c80c7e0f
DTITLE=Radio Kings - It Ain't Easy
DYEAR=1994
DGENRE=Blues
TTITLE0=The Other Side Of Town
TTITLE1=It Ain't Easy
TTITLE2=Love Like A Wave
TTITLE3=Count The Days
TTITLE4=Tell Me When
TTITLE5=This Love
TTITLE6=Runnin' With The Blues
TTITLE7=Can't Go On Without You
TTITLE8=Next Time
TTITLE9=Love In The Light
TTITLE10=When I Was Alone
TTITLE11=Game Over
TTITLE12=Love Comes Easy (Love Comes Hard)
TTITLE13=Drownin'
TTITLE14=Kill Me
EXTD=
EXTT0=
EXTT1=
EXTT2=
EXTT3=
EXTT4=
EXTT5=
EXTT6=
EXTT7=
EXTT8=
EXTT9=
EXTT10=
EXTT11=
EXTT12=
EXTT13=
EXTT14=
PLAYORDER=
